<?xml version="1.0" encoding="utf-8"?>
<!-- Generator: Adobe Illustrator 28.3.0, SVG Export Plug-In . SVG Version: 6.00 Build 0)  -->
<svg version="1.1" id="Layer_1" xmlns="http://www.w3.org/2000/svg" xmlns:xlink="http://www.w3.org/1999/xlink" x="0px" y="0px"
	 viewBox="0 0 1000 1000" style="enable-background:new 0 0 1000 1000;" xml:space="preserve">
<style type="text/css">
	.st0{fill:#B39164;}
	.st1{fill:#1B6B8C;}
</style>
<g>
	<path class="st0" d="M696.4,202c6.5,64.5,8.8,129.6,6.5,194.4l-0.2,5.2l-4.1,1.6c-27.3,10.8-55.2,20.3-82.2,31.9
		c-27,11.5-53.5,24.3-79.7,37.7l-1.8,0.9l-2.3-1c-58.3-23.6-118.5-50.6-175.3-77.7l-5.7-2.7c0.1-24.8,0.9-51.6,1.7-76.5
		c1.6-38.9,3.4-78.5,7.3-117.2h1.9c1.6,15.6,2.8,31.3,3.8,46.9c2,30.2,3.4,63.4,4.2,93.8c0.5,15.6,0.7,31.3,0.9,46.9l-5.6-8.9
		c56.9,26.9,115.9,56.5,171,86.8l-4,0c13.7-5.3,27.4-10.7,40.9-16.4c40.9-16.6,79.7-37.7,118.9-57.9l-4.4,6.8
		c-1.8-40.5-0.7-81,1.1-121.5c1.1-24.3,2.7-48.6,5.4-72.9C694.6,202,696.4,202,696.4,202L696.4,202z"/>
	<path class="st0" d="M687.1,210.5c-49.4,29.3-101.4,53.8-153.9,77l-3.7,1.6l-3.8-1.7c-27.3-12.4-54.3-25.3-80.9-38.9
		c-26.7-13.8-53.1-28-78.7-43.9c43.1,13.3,84.8,30.1,126.3,47.8c13.7,6,27.4,12,41,18.3l-7.5-0.1C578.5,248,631.9,226.7,687.1,210.5
		L687.1,210.5z"/>
	<path class="st0" d="M524.9,78.8c-34.5,19.2-77,42.1-112.1,60.5c-12.3,6.5-24.6,12.8-36.9,19.1l-0.1-12.7
		c51,22.4,103.9,46.9,154.3,70.4l-7.4-0.2c37.6-15.6,84.6-34.6,122.7-49.5c13.7-5.4,27.3-10.8,41.1-16l-0.4,13.5
		C634.1,137.6,575.8,106.9,524.9,78.8L524.9,78.8z M524.9,78.8c53.5,21.4,114.8,47.9,167.6,71.6l15,6.7
		c-29.2,13.3-66.6,28.9-96.4,41.8c-24.1,9.9-57.6,24.4-81.4,33.9l-3.8,1.5l-3.6-1.7c-54.9-26-111.7-53.7-165.9-81
		C411.3,126.8,469.1,101.5,524.9,78.8L524.9,78.8z"/>
</g>
<g>
	<path class="st1" d="M327.7,564L327.7,564c0.2-0.3,0.5-0.6,0.7-1C328.1,563.3,327.9,563.7,327.7,564z"/>
	<path class="st1" d="M129.2,663.2c-16.2,17.3-36,25.5-59.6,21.2c-25.6-4.8-40.8-21.6-49.1-45c-3.7-10.3-4.8-21.1-4.8-32.1
		c0-32.6,0.5-65.2-0.3-97.8c-0.3-11.8,6.3-10.6,13.9-10.9c8.6-0.4,13.7,0.7,13.5,11.6c-0.5,30.6,0,61.3,0.4,92
		c0.1,6.6,1,13.2,2.4,19.6c9.1,38.9,38.4,55.4,76.9,43.4C124.8,664.3,127.1,663.7,129.2,663.2z"/>
	<path class="st1" d="M642.7,675.5c0.1,3.8-1.8,5.2-5.6,5.8c-16.8,2.7-19.6,0.6-19.8-16.1c-0.1-13.6-0.3-27.2,0.1-40.8
		c0.2-7.2-2.4-9.6-9.4-9.4c-12.8,0.3-25.7,0.1-40.4,0.1c10.7-12.5,22.2-16.7,36.7-15.7c12.7,0.9,13.2-0.5,8.6-12.2
		c-7.5-19.2-25.7-28.6-46.5-23.9c-4.4,1-8.8,2.5-13.3,3.7c13.9-17.6,32.4-22,53.1-18.5c17.8,3,32.4,17.1,34.7,35.1
		C645.1,614.1,642.1,644.9,642.7,675.5z"/>
	<path class="st1" d="M710.2,671.5c0.1,11.7-7,9.2-13.7,9.8c-8.3,0.8-11.8-1.5-11.6-10.6c0.6-29.9,0.2-59.8,0.2-89.6
		c0-30.3,0.4-60.6-0.2-90.8c-0.2-10.3,5.3-10.1,12.4-9.9c6.7,0.2,13-1,12.9,9.6C709.8,550.5,709.7,611,710.2,671.5z"/>
	<path class="st1" d="M806.8,674.2c0,11.7-9.4,6-14.8,6.9c-5.6,1-10.7,0.7-10.5-7.8c0.5-19,0.3-38,0-57c-0.1-6.9-0.6-14-1.9-20.8
		c-4.5-23.2-21.9-35.9-45.7-33.7c-5.4,0.5-10.6,1.8-17.9,3c14.4-16.5,38.1-22.8,58-15.9c19,6.6,31.1,19.7,31.8,40.3
		C806.9,617.6,806.8,645.9,806.8,674.2z"/>
	<path class="st1" d="M308.4,681.5c-9.3,0.3-13.2-1.7-12.8-11.9c0.8-21.4,0.2-42.7,0.2-64.1c0-7-0.5-13.9-2.8-20.7
		c-6.3-18.8-19.9-26.4-39.2-21.8c-2.2,0.5-4.2,2.1-7.9,0.4c12.6-12.8,27.1-19,44.4-15.8c16.2,3,25.9,13.6,29.5,29.5
		c3.3,14.6,1.3,29.4,1.5,44.1c0.3,16.3-0.7,32.7,0.3,48.9C322.3,681.3,316.7,681.3,308.4,681.5z"/>
	<path class="st1" d="M401.5,674.4c0,12-9.6,5.6-14.9,6.7c-6,1.3-10.5,0-10.3-8.1c0.4-21.4,0.2-42.7,0.1-64
		c-0.1-8.9-0.2-17.9-3.6-26.3c-6.7-16.9-19.5-23.8-37.2-20.1c-2.4,0.5-4.7,2.4-7.3,1.5c-0.2-0.1-0.3-0.1-0.5-0.2h0
		c0.2-0.3,0.5-0.6,0.7-1c1.2-1.6,2.6-3.2,4.1-4.6c0.6-0.6,1.2-1.1,1.9-1.7c0.6-0.6,1.3-1,2-1.5c10.1-7.3,24.2-10.5,36.4-7.3
		c15.4,3.9,27.6,16.8,28.1,33.4C401.9,612.3,401.6,643.3,401.5,674.4z"/>
	<path class="st1" d="M166.3,631.1c0,8.3-14.7,23.6-23,23.7c-5.9,0.1-3.7-5-3.8-7.8c-0.2-23.3-0.1-46.6-0.1-69.9
		c0-22.5,0.6-45.1-0.2-67.5c-0.5-12.8,7.6-10.5,15.2-11c8.7-0.6,12.3,1.7,12.2,11.4C166,550.4,166.3,590.7,166.3,631.1z"/>
	<path class="st1" d="M469.6,560c-0.8,19-0.2,38-0.2,57c0,18.3-0.5,36.5,0.2,54.7c0.4,9.3-4.2,10.4-11.3,9.5
		c-6-0.8-14.7,3.9-14.6-8.6c0.4-37.7,0.5-75.3,0-113c-0.2-11.3,7-8.7,13.2-8.9C463.4,550.6,470.1,548.9,469.6,560z"/>
	<path class="st1" d="M237.9,560.3c-0.7,18.6-0.2,37.2-0.2,55.8s-0.5,37.2,0.2,55.8c0.5,11.8-7.4,8.9-13.9,9.5
		c-7.3,0.6-11.4-0.6-11.3-9.6c0.5-37.2,0.6-74.4,0-111.5c-0.2-10.7,6-9.4,12.7-9.5C232.1,550.6,238.3,549.8,237.9,560.3z"/>
	<path class="st1" d="M610.4,664.5c-8.9,13.8-28.8,19.7-45.4,15c-15.4-4.4-26.1-16.5-26.8-30.2c-0.7-14.3,8.5-26.8,25.3-32.7
		c-6.6,16-5.2,29,6.7,39.8C581.3,666.6,595.1,667.3,610.4,664.5z"/>
	<path class="st1" d="M523.6,565.9c-4.4,2.6-8.4,5.7-12.4,8.6c-2.5,1.8-4.9,2.4-7.3,0c-8.7-8.9-19.3-10.8-31.5-7.7
		c10.4-18.8,36-24.4,51.3-12.1C529,558.8,530.2,562.1,523.6,565.9z"/>
</g>
<g>
	<g>
		<path class="st0" d="M989.9,635.7v42.5c0,1,0,1.9-0.1,2.9c-0.2,3.2-1.5,4.3-5.2,4.4c-5,0-9.9,0-14.9,0c-3.5,0-4.7-1.1-5-4.1
			c-0.1-1-0.1-1.9-0.1-2.9V566.8c0-5.7,0.9-6.4,7.4-6.4c3.8,0,7.7,0,11.5,0c5.1,0.1,6.3,1,6.3,5.4
			C989.9,589.1,989.9,612.4,989.9,635.7z"/>
		<path class="st0" d="M990.5,518.6c-3.5,2.6-6.7,5.5-10.1,8.3c-2.1,1.7-3.6,1.8-5.7,0.2c-3.8-2.8-7.7-5.6-11.5-8.3
			c-2.3-1.6-2.4-2.9-0.3-4.6c3.9-3.1,7.8-6,11.8-8.9c1-0.7,2.2-1,3.1-1.5c0.8,0.2,1.5,0.2,1.9,0.6c3.7,2.4,7.5,4.7,11,7.4
			C994.4,514.6,994.2,515.8,990.5,518.6z"/>
	</g>
	<g id="VD5tNb_00000131347658826936278440000017518446148763888561_">
		<g>
			<path class="st0" d="M925.7,543.4c-0.7,3.2-1.5,6.4-2.7,9.5c-0.9,2.2-3.2,2.4-5.4,2.4c-5.8,0-11.6,0-17.4,0c-1.2,0-2.4,0-3.7,0.1
				c-3.7,0.3-5.8,2.5-6.2,6.2c-0.1,1.5-0.1,3.1-0.1,4.6v110.3c0,8.7-0.3,9-9.1,9c-4,0-8,0-11.9,0c-6.1,0-7-0.9-7-6.9
				c0-19.1,0-38.2,0-57.2c0-18.6,0-37.2,0-55.8c0-1.4,0-2.7-0.1-4.1c-0.4-3.7-2.6-5.8-6.3-6c-3.4-0.2-6.9-0.2-10.3-0.5
				c-0.8-0.1-1.9-0.6-2.2-1.3c-0.2-0.6,0.3-1.9,0.9-2.3c3.5-2.7,7-5.5,10.8-7.7c5.3-2.9,7.4-7,7.3-12.9c-0.2-8.3,0.3-16.7-0.2-25.1
				c-0.4-6.8,2.7-11.2,7.9-14.7c5.5-3.7,10.9-7.6,16.4-11.3c0.7-0.5,2-1,2.7-0.7c0.6,0.3,1,1.7,1,2.6c0.1,6.5,0.1,13,0.1,19.5
				c0,10.2,0,20.4,0,30.6c0,6.4,2.1,8.5,8.6,8.5c7,0,14.1,0,21.1,0c1.1,0,2.3,0.1,3.4,0.3C925,540.7,926,541.8,925.7,543.4z"/>
			<path class="st0" d="M953.1,470.4c-5.6,4.3-11.5,8.3-17.4,12.3c-1.9,1.3-3.9,1-5.4-0.7c-5.8-6.3-13.6-8.1-21.4-10.2
				c-1.8-0.4-3.8,0.1-5.6,0.2c-2,0.2-3.9,0.5-5.9,0.5c-1.8,0-2.4-1.1-1.6-2.6c0.7-1.3,1.6-2.5,2.6-3.4c2.6-2.4,5.1-5,8.1-6.8
				c3.1-1.9,6.7-3.3,10.2-4.4c4.2-1.3,8.6-2,12.6-2.9c9.2,1.7,17.6,3.6,24.1,10.5C956.1,465.8,956.3,468,953.1,470.4z"/>
		</g>
	</g>
</g>
<g>
	<path class="st0" d="M44.6,784.1v-25.9c-4.3-6.7-8.3-13.2-12.1-19.7c-3.8-6.5-7.4-12.8-10.7-19h10.6c2.4,5.1,5,10.3,7.9,15.5
		c2.9,5.3,6,10.3,9,15.2c3.1-4.8,6-9.9,8.9-15.2c2.9-5.2,5.6-10.4,8-15.5h10.1c-3.4,6.2-6.9,12.6-10.7,19c-3.8,6.4-7.8,13-12,19.6
		v26.1L44.6,784.1L44.6,784.1z"/>
	<path class="st0" d="M122.5,759.8c0,3.9-0.6,7.3-1.7,10.5c-1.1,3.1-2.7,5.8-4.7,8c-2,2.3-4.4,4-7.2,5.2c-2.8,1.2-5.9,1.8-9.2,1.8
		s-6.4-0.6-9.2-1.8c-2.8-1.2-5.2-2.9-7.3-5.2c-2-2.3-3.6-4.9-4.7-8c-1.1-3.1-1.7-6.6-1.7-10.5c0-3.8,0.6-7.3,1.7-10.4
		c1.1-3.1,2.7-5.8,4.7-8.1c2-2.3,4.4-4,7.3-5.2c2.8-1.2,5.9-1.8,9.2-1.8s6.4,0.6,9.2,1.8c2.8,1.2,5.2,2.9,7.2,5.2
		c2,2.3,3.6,4.9,4.7,8.1C121.9,752.5,122.5,756,122.5,759.8z M113.4,759.8c0-5.5-1.2-9.8-3.7-13c-2.5-3.2-5.8-4.8-10-4.8
		c-4.2,0-7.6,1.6-10,4.8s-3.7,7.6-3.7,13c0,5.5,1.2,9.8,3.7,13c2.5,3.2,5.8,4.8,10,4.8c4.2,0,7.6-1.6,10-4.8
		S113.4,765.2,113.4,759.8z"/>
	<path class="st0" d="M173.1,782.6c-2,0.5-4.6,1-7.9,1.6c-3.3,0.6-7,0.8-11.4,0.8c-3.7,0-6.9-0.6-9.4-1.6c-2.6-1.1-4.6-2.6-6.2-4.6
		c-1.5-2-2.7-4.4-3.4-7c-0.7-2.7-1-5.7-1-9v-27.3h8.7v25.4c0,5.9,0.9,10.2,2.8,12.7c1.9,2.6,5,3.8,9.4,3.8c0.9,0,1.9,0,2.9-0.1
		c1-0.1,1.9-0.1,2.8-0.2c0.9-0.1,1.7-0.2,2.4-0.3c0.7-0.1,1.2-0.2,1.5-0.3v-41h8.7L173.1,782.6L173.1,782.6z"/>
	<path class="st0" d="M205.6,734.5c0.7,0,1.6,0,2.6,0.1c1,0.1,1.9,0.2,2.8,0.4c0.9,0.2,1.8,0.3,2.6,0.5s1.4,0.3,1.7,0.4l-1.5,7.6
		c-0.7-0.2-1.8-0.6-3.4-0.9c-1.6-0.3-3.6-0.5-6.1-0.5c-1.6,0-3.2,0.2-4.8,0.5c-1.6,0.3-2.6,0.6-3.1,0.7V784h-8.7v-46.5
		c2.1-0.7,4.6-1.5,7.7-2.1C198.4,734.8,201.8,734.5,205.6,734.5z"/>
	<path class="st0" d="M280.7,740.2c-2.6,8.3-5.3,16-7.9,23.1c-2.7,7.1-5.3,14-8,20.7h-9.1c-3.3-9.5-6.2-19.6-8.7-30.1
		c-2.5-10.6-4.9-22.1-7-34.6h9.5c0.9,4.8,1.8,9.7,2.7,14.6c1,4.8,1.9,9.6,2.9,14.1c1,4.6,2,8.9,3,13.1c1,4.2,2,8,3.1,11.6
		c2.5-6.5,5.1-13.7,7.9-21.5c2.8-7.8,5.4-15.9,7.8-24.2h7.8c2.4,8.3,5.1,16.4,7.9,24.2c2.9,7.8,5.5,15,8,21.5c1-3.5,2-7.3,3-11.5
		c1-4.2,2-8.5,2.9-13.1c1-4.6,1.9-9.3,2.8-14.2c0.9-4.9,1.8-9.7,2.7-14.6h9.3c-2.3,12.5-4.6,24-7.2,34.6
		c-2.5,10.6-5.4,20.6-8.6,30.1h-9c-2.7-6.7-5.4-13.6-8-20.7C285.9,756.2,283.3,748.5,280.7,740.2z"/>
	<path class="st0" d="M344.2,734.3c3.5,0,6.4,0.5,8.8,1.4c2.4,0.9,4.3,2.2,5.8,3.8c1.5,1.7,2.5,3.6,3.1,5.9c0.6,2.3,0.9,4.8,0.9,7.5
		v30.3c-0.7,0.1-1.8,0.3-3.1,0.5c-1.3,0.2-2.8,0.4-4.5,0.6s-3.5,0.4-5.5,0.5c-2,0.2-3.9,0.2-5.8,0.2c-2.7,0-5.3-0.3-7.6-0.8
		c-2.3-0.6-4.3-1.5-6-2.7c-1.7-1.2-3-2.8-3.9-4.8c-0.9-2-1.4-4.4-1.4-7.2c0-2.7,0.6-5,1.6-6.9c1.1-1.9,2.6-3.5,4.4-4.7
		s4-2.1,6.5-2.6c2.5-0.6,5.1-0.8,7.8-0.8c0.9,0,1.8,0.1,2.7,0.2c0.9,0.1,1.8,0.2,2.7,0.4c0.8,0.2,1.6,0.3,2.2,0.4
		c0.6,0.1,1,0.2,1.3,0.3v-2.4c0-1.4-0.2-2.8-0.5-4.3c-0.3-1.4-0.9-2.7-1.7-3.7s-1.9-1.9-3.3-2.6s-3.2-1-5.5-1
		c-2.9,0-5.4,0.2-7.5,0.6c-2.2,0.4-3.8,0.8-4.8,1.3l-1-7.2c1.1-0.5,3-1,5.6-1.5C338.3,734.5,341.1,734.3,344.2,734.3z M344.9,777.8
		c2.1,0,3.9,0,5.5-0.1c1.6-0.1,2.9-0.3,4-0.5v-14.5c-0.6-0.3-1.6-0.6-3-0.8c-1.4-0.2-3.1-0.3-5.1-0.3c-1.3,0-2.7,0.1-4.2,0.3
		c-1.5,0.2-2.8,0.6-4,1.2c-1.2,0.6-2.2,1.4-3,2.4c-0.8,1-1.2,2.4-1.2,4.1c0,3.1,1,5.3,3,6.5S341.5,777.8,344.9,777.8z"/>
	<path class="st0" d="M369.8,793.1c0.7,0.3,1.6,0.6,2.7,0.9c1.1,0.3,2.2,0.4,3.2,0.4c3.4,0,6.1-0.8,8-2.3c1.9-1.5,3.7-4,5.2-7.4
		c-3.9-7.5-7.6-15.4-11-23.8c-3.4-8.4-6.2-16.8-8.5-25.5h9.3c0.7,2.8,1.5,5.8,2.5,9.1c1,3.2,2,6.6,3.2,10c1.2,3.4,2.5,6.8,3.8,10.3
		c1.4,3.4,2.8,6.7,4.3,9.9c2.4-6.5,4.4-13,6.2-19.4c1.7-6.4,3.4-13,4.9-19.8h8.9c-2.3,9.2-4.7,18-7.5,26.4
		c-2.7,8.4-5.7,16.3-8.9,23.7c-1.2,2.8-2.5,5.2-3.9,7.2c-1.4,2-2.8,3.7-4.4,5c-1.6,1.3-3.5,2.3-5.5,2.9c-2,0.6-4.3,0.9-6.8,0.9
		c-0.7,0-1.4,0-2.2-0.1c-0.8-0.1-1.5-0.2-2.2-0.4c-0.7-0.2-1.4-0.3-2-0.5c-0.6-0.2-1-0.3-1.3-0.5L369.8,793.1z"/>
	<path class="st0" d="M451,735.5h18.4v7.3H451v22.4c0,2.4,0.2,4.4,0.6,6c0.4,1.6,0.9,2.8,1.7,3.7c0.7,0.9,1.7,1.5,2.8,1.9
		c1.1,0.4,2.4,0.6,3.9,0.6c2.6,0,4.7-0.3,6.3-0.9c1.6-0.6,2.7-1,3.3-1.3l1.7,7.2c-0.9,0.4-2.4,1-4.6,1.6c-2.2,0.6-4.7,1-7.5,1
		c-3.3,0-6-0.4-8.2-1.3c-2.2-0.8-3.9-2.1-5.2-3.8c-1.3-1.7-2.2-3.7-2.7-6.2c-0.5-2.5-0.8-5.3-0.8-8.5V722l8.7-1.5L451,735.5
		L451,735.5z"/>
	<path class="st0" d="M521.7,759.8c0,3.9-0.6,7.3-1.7,10.5c-1.1,3.1-2.7,5.8-4.7,8c-2,2.3-4.4,4-7.2,5.2c-2.8,1.2-5.9,1.8-9.2,1.8
		s-6.4-0.6-9.1-1.8c-2.8-1.2-5.2-2.9-7.2-5.2c-2-2.3-3.6-4.9-4.7-8c-1.1-3.1-1.7-6.6-1.7-10.5c0-3.8,0.6-7.3,1.7-10.4
		c1.1-3.1,2.7-5.8,4.7-8.1c2-2.3,4.4-4,7.2-5.2c2.8-1.2,5.9-1.8,9.1-1.8s6.4,0.6,9.2,1.8c2.8,1.2,5.2,2.9,7.2,5.2
		c2,2.3,3.6,4.9,4.7,8.1C521.2,752.5,521.7,756,521.7,759.8z M512.7,759.8c0-5.5-1.2-9.8-3.7-13s-5.8-4.8-10-4.8s-7.6,1.6-10,4.8
		c-2.5,3.2-3.7,7.6-3.7,13c0,5.5,1.2,9.8,3.7,13s5.8,4.8,10,4.8s7.6-1.6,10-4.8S512.7,765.2,512.7,759.8z"/>
	<path class="st0" d="M584.5,775.1c-0.6-1.5-1.5-3.4-2.5-5.7c-1-2.3-2.1-4.8-3.3-7.5c-1.2-2.7-2.4-5.4-3.8-8.3
		c-1.3-2.8-2.6-5.5-3.8-8c-1.2-2.5-2.3-4.8-3.3-6.8c-1-2-1.9-3.5-2.5-4.6c-0.7,7.3-1.2,15.3-1.7,23.8c-0.4,8.5-0.8,17.2-1.1,25.9
		h-8.9c0.2-5.6,0.5-11.3,0.8-16.9c0.3-5.7,0.7-11.3,1.1-16.8c0.4-5.5,0.8-10.9,1.3-16.1s1-10.2,1.5-14.8h7.9c1.7,2.7,3.5,6,5.4,9.7
		c1.9,3.7,3.9,7.7,5.8,11.7c1.9,4.1,3.8,8.1,5.6,12.2c1.8,4.1,3.5,7.8,4.9,11.2c1.5-3.4,3.1-7.1,4.9-11.2c1.8-4.1,3.7-8.1,5.6-12.2
		c1.9-4.1,3.9-8,5.8-11.7c1.9-3.7,3.7-7,5.4-9.7h7.9c2.1,20.9,3.7,42.4,4.8,64.7h-8.9c-0.3-8.7-0.7-17.3-1.1-25.9
		c-0.4-8.5-1-16.5-1.7-23.8c-0.6,1-1.5,2.6-2.5,4.6c-1,2-2.1,4.3-3.3,6.8c-1.2,2.5-2.4,5.2-3.8,8c-1.4,2.8-2.6,5.6-3.8,8.3
		c-1.2,2.7-2.3,5.2-3.3,7.5c-1,2.3-1.9,4.2-2.5,5.7H584.5z"/>
	<path class="st0" d="M633.3,759.9c0-4.3,0.6-8.1,1.9-11.3c1.2-3.2,2.9-5.9,4.9-8c2-2.1,4.4-3.7,7.1-4.8s5.4-1.6,8.2-1.6
		c6.5,0,11.5,2,15,6.1c3.5,4.1,5.2,10.3,5.2,18.6c0,0.4,0,0.9,0,1.5c0,0.6,0,1.1-0.1,1.6h-33.2c0.4,5,1.8,8.9,4.4,11.5
		c2.6,2.6,6.5,3.9,11.9,3.9c3.1,0,5.6-0.2,7.7-0.8c2.1-0.5,3.6-1,4.7-1.5l1.2,7.3c-1,0.6-2.9,1.1-5.6,1.8c-2.7,0.6-5.6,0.9-9,0.9
		c-4.2,0-7.9-0.6-11-1.9c-3.1-1.3-5.6-3-7.6-5.3c-2-2.3-3.5-4.9-4.4-8C633.8,766.9,633.3,763.5,633.3,759.9z M666.6,755.1
		c0.1-3.9-0.9-7.1-2.9-9.7c-2-2.5-4.8-3.8-8.4-3.8c-2,0-3.7,0.4-5.3,1.2c-1.5,0.8-2.8,1.8-3.9,3c-1.1,1.2-1.9,2.7-2.5,4.3
		c-0.6,1.6-1,3.3-1.2,4.9L666.6,755.1L666.6,755.1z"/>
	<path class="st0" d="M709,785.2c-3.9,0-7.4-0.6-10.3-1.9c-2.9-1.3-5.4-3-7.5-5.2c-2-2.3-3.5-4.9-4.5-8c-1-3.1-1.5-6.5-1.5-10.2
		s0.6-7.2,1.6-10.3c1.1-3.1,2.6-5.8,4.6-8.1c2-2.3,4.4-4,7.3-5.3c2.9-1.3,6.1-1.9,9.7-1.9c2.2,0,4.4,0.2,6.5,0.6s4.3,1,6.3,1.8
		l-2,7.4c-1.3-0.6-2.8-1.1-4.5-1.5c-1.7-0.4-3.5-0.6-5.5-0.6c-4.8,0-8.6,1.5-11.2,4.6c-2.6,3-3.9,7.5-3.9,13.4c0,2.6,0.3,5,0.9,7.2
		c0.6,2.2,1.5,4,2.8,5.6c1.3,1.5,2.9,2.7,4.9,3.6c2,0.9,4.4,1.3,7.3,1.3c2.3,0,4.4-0.2,6.3-0.6c1.9-0.4,3.3-0.9,4.4-1.4l1.2,7.3
		c-0.5,0.3-1.2,0.6-2.2,0.9c-1,0.3-2,0.5-3.2,0.7c-1.2,0.2-2.4,0.4-3.8,0.6C711.5,785.1,710.2,785.2,709,785.2z"/>
	<path class="st0" d="M752.1,785.2c-3.9,0-7.4-0.6-10.3-1.9c-2.9-1.3-5.4-3-7.5-5.2c-2-2.3-3.5-4.9-4.5-8c-1-3.1-1.5-6.5-1.5-10.2
		s0.6-7.2,1.6-10.3c1.1-3.1,2.6-5.8,4.6-8.1c2-2.3,4.4-4,7.3-5.3s6.1-1.9,9.7-1.9c2.2,0,4.4,0.2,6.5,0.6s4.3,1,6.3,1.8l-2,7.4
		c-1.3-0.6-2.8-1.1-4.5-1.5c-1.7-0.4-3.5-0.6-5.5-0.6c-4.8,0-8.6,1.5-11.2,4.6c-2.6,3-3.9,7.5-3.9,13.4c0,2.6,0.3,5,0.9,7.2
		c0.6,2.2,1.5,4,2.8,5.6c1.3,1.5,2.9,2.7,4.9,3.6c2,0.9,4.4,1.3,7.3,1.3c2.3,0,4.4-0.2,6.3-0.6c1.9-0.4,3.3-0.9,4.4-1.4l1.2,7.3
		c-0.5,0.3-1.2,0.6-2.2,0.9c-1,0.3-2,0.5-3.2,0.7c-1.2,0.2-2.4,0.4-3.8,0.6C754.7,785.1,753.4,785.2,752.1,785.2z"/>
	<path class="st0" d="M789.8,734.3c3.5,0,6.4,0.5,8.8,1.4c2.4,0.9,4.3,2.2,5.8,3.8c1.5,1.7,2.5,3.6,3.1,5.9c0.6,2.3,0.9,4.8,0.9,7.5
		v30.3c-0.7,0.1-1.8,0.3-3.1,0.5c-1.3,0.2-2.8,0.4-4.5,0.6c-1.7,0.2-3.5,0.4-5.5,0.5c-2,0.2-3.9,0.2-5.8,0.2c-2.7,0-5.3-0.3-7.6-0.8
		c-2.3-0.6-4.3-1.5-6-2.7c-1.7-1.2-3-2.8-3.9-4.8c-0.9-2-1.4-4.4-1.4-7.2c0-2.7,0.6-5,1.6-6.9c1.1-1.9,2.6-3.5,4.4-4.7
		c1.9-1.2,4-2.1,6.5-2.6c2.5-0.6,5.1-0.8,7.8-0.8c0.9,0,1.8,0.1,2.7,0.2c0.9,0.1,1.8,0.2,2.7,0.4s1.6,0.3,2.2,0.4
		c0.6,0.1,1,0.2,1.3,0.3v-2.4c0-1.4-0.2-2.8-0.5-4.3c-0.3-1.4-0.9-2.7-1.7-3.7c-0.8-1.1-1.9-1.9-3.3-2.6s-3.2-1-5.5-1
		c-2.9,0-5.4,0.2-7.5,0.6c-2.2,0.4-3.8,0.8-4.8,1.3l-1-7.2c1.1-0.5,3-1,5.6-1.5C784,734.5,786.8,734.3,789.8,734.3z M790.6,777.8
		c2.1,0,3.9,0,5.5-0.1c1.6-0.1,2.9-0.3,4-0.5v-14.5c-0.6-0.3-1.6-0.6-3-0.8s-3.1-0.3-5.1-0.3c-1.3,0-2.7,0.1-4.2,0.3
		c-1.5,0.2-2.8,0.6-4,1.2c-1.2,0.6-2.2,1.4-3,2.4c-0.8,1-1.2,2.4-1.2,4.1c0,3.1,1,5.3,3,6.5S787.2,777.8,790.6,777.8z"/>
</g>
</svg>
