<?xml version="1.0" encoding="utf-8"?>
<!-- Generator: Adobe Illustrator 28.3.0, SVG Export Plug-In . SVG Version: 6.00 Build 0)  -->
<svg version="1.1" id="Layer_1" xmlns="http://www.w3.org/2000/svg" xmlns:xlink="http://www.w3.org/1999/xlink" x="0px" y="0px"
	 viewBox="0 0 500 500" style="enable-background:new 0 0 500 500;" xml:space="preserve">
<style type="text/css">
	.st0{fill:#B39164;}
	.st1{fill:#1B6B8C;}
</style>
<g id="Layer_2_00000048459072728925924130000012067057197640334723_">
</g>
<path id="XMLID_226_" class="st0" d="M144.7,243.1C144.6,243,144.6,242.9,144.7,243.1"/>
<path id="XMLID_225_" class="st0" d="M145.2,243C145.1,243,145.1,243,145.2,243C145.1,243,145.1,243,145.2,243L145.2,243
	C145.3,243.2,145.2,243.1,145.2,243"/>
<path id="XMLID_224_" class="st0" d="M144.2,243.1C144.1,243,144.1,242.9,144.2,243.1"/>
<path id="XMLID_223_" class="st0" d="M144.8,243.1C144.8,243.1,144.8,243.1,144.8,243.1C144.7,243,144.5,242.8,144.8,243.1"/>
<path id="XMLID_185_" class="st0" d="M144.7,243.1C144.6,243,144.6,242.9,144.7,243.1"/>
<path id="XMLID_184_" class="st0" d="M145.2,243C145.1,243,145.1,243,145.2,243C145.1,243,145.1,243,145.2,243L145.2,243
	C145.3,243.2,145.2,243.1,145.2,243"/>
<path id="XMLID_183_" class="st0" d="M144.2,243.1C144.1,243,144.1,242.9,144.2,243.1"/>
<path id="XMLID_182_" class="st0" d="M144.8,243.1C144.8,243.1,144.8,243.1,144.8,243.1C144.7,243,144.5,242.8,144.8,243.1"/>
<path id="XMLID_151_" class="st0" d="M144.7,243.1C144.6,243,144.6,242.9,144.7,243.1"/>
<path id="XMLID_150_" class="st0" d="M145.2,243C145.1,243,145.1,243,145.2,243C145.1,243,145.1,243,145.2,243L145.2,243
	C145.3,243.2,145.2,243.1,145.2,243"/>
<path id="XMLID_149_" class="st0" d="M144.2,243.1C144.1,243,144.1,242.9,144.2,243.1"/>
<path id="XMLID_148_" class="st0" d="M144.8,243.1C144.8,243.1,144.8,243.1,144.8,243.1C144.7,243,144.5,242.8,144.8,243.1"/>
<path id="XMLID_117_" class="st0" d="M144.7,243.1C144.6,243,144.6,242.9,144.7,243.1"/>
<path id="XMLID_116_" class="st0" d="M145.2,243C145.1,243,145.1,243,145.2,243C145.1,243,145.1,243,145.2,243L145.2,243
	C145.3,243.2,145.2,243.1,145.2,243"/>
<path id="XMLID_115_" class="st0" d="M144.2,243.1C144.1,243,144.1,242.9,144.2,243.1"/>
<path id="XMLID_114_" class="st0" d="M144.8,243.1C144.8,243.1,144.8,243.1,144.8,243.1C144.7,243,144.5,242.8,144.8,243.1"/>
<path id="XMLID_83_" class="st0" d="M144.7,243.1C144.6,243,144.6,242.9,144.7,243.1"/>
<path id="XMLID_82_" class="st0" d="M145.2,243C145.1,243,145.1,243,145.2,243C145.1,243,145.1,243,145.2,243L145.2,243
	C145.3,243.2,145.2,243.1,145.2,243"/>
<path id="XMLID_81_" class="st0" d="M144.2,243.1C144.1,243,144.1,242.9,144.2,243.1"/>
<path id="XMLID_80_" class="st0" d="M144.8,243.1C144.8,243.1,144.8,243.1,144.8,243.1C144.7,243,144.5,242.8,144.8,243.1"/>
<path id="XMLID_51_" class="st0" d="M144.7,243.1C144.6,243,144.6,242.9,144.7,243.1"/>
<path id="XMLID_50_" class="st0" d="M145.2,243C145.1,243,145.1,243,145.2,243C145.1,243,145.1,243,145.2,243L145.2,243
	C145.3,243.2,145.2,243.1,145.2,243"/>
<path id="XMLID_49_" class="st0" d="M144.2,243.1C144.1,243,144.1,242.9,144.2,243.1"/>
<path id="XMLID_48_" class="st0" d="M144.8,243.1C144.8,243.1,144.8,243.1,144.8,243.1C144.7,243,144.5,242.8,144.8,243.1"/>
<g>
	<path class="st0" d="M140,219.8c2.1,20.9,2.8,42,2.1,63l-0.1,1.7l-1.3,0.5c-8.9,3.5-17.9,6.6-26.7,10.3
		c-8.8,3.7-17.3,7.9-25.8,12.2l-0.6,0.3l-0.7-0.3c-18.9-7.7-38.4-16.4-56.8-25.2l-1.9-0.9c0-8,0.3-16.7,0.5-24.8
		c0.5-12.6,1.1-25.4,2.4-38h0.6c0.5,5.1,0.9,10.1,1.2,15.2c0.6,9.8,1.1,20.5,1.4,30.4c0.2,5.1,0.2,10.1,0.3,15.2l-1.8-2.9
		c18.4,8.7,37.5,18.3,55.4,28.1l-1.3,0c4.4-1.7,8.9-3.5,13.3-5.3c13.2-5.4,25.8-12.2,38.5-18.8l-1.4,2.2
		c-0.6-13.1-0.2-26.3,0.4-39.4c0.4-7.9,0.9-15.8,1.8-23.6C139.4,219.8,140,219.8,140,219.8L140,219.8z"/>
	<path class="st0" d="M137,222.6c-16,9.5-32.9,17.4-49.9,24.9l-1.2,0.5l-1.2-0.6c-8.8-4-17.6-8.2-26.2-12.6
		c-8.7-4.5-17.2-9.1-25.5-14.2c14,4.3,27.5,9.8,40.9,15.5c4.4,1.9,8.9,3.9,13.3,5.9l-2.4,0C101.8,234.7,119.1,227.8,137,222.6
		L137,222.6z"/>
	<path class="st0" d="M84.4,179.9c-11.2,6.2-25,13.6-36.3,19.6c-4,2.1-8,4.1-12,6.2l0-4.1c16.5,7.3,33.7,15.2,50,22.8l-2.4-0.1
		c12.2-5.1,27.4-11.2,39.8-16c4.4-1.8,8.9-3.5,13.3-5.2l-0.1,4.4C119.8,199,101,189,84.4,179.9L84.4,179.9z M84.4,179.9
		c17.3,6.9,37.2,15.5,54.3,23.2l4.9,2.2c-9.5,4.3-21.6,9.4-31.2,13.6c-7.8,3.2-18.7,7.9-26.4,11l-1.2,0.5l-1.2-0.6
		c-17.8-8.4-36.2-17.4-53.8-26.3C47.6,195.5,66.4,187.2,84.4,179.9L84.4,179.9z"/>
</g>
<g>
	<path class="st1" d="M251.2,236.9L251.2,236.9c0.1-0.1,0.1-0.2,0.2-0.3C251.4,236.7,251.3,236.8,251.2,236.9z"/>
	<path class="st1" d="M186.9,269c-5.2,5.6-11.7,8.3-19.3,6.9c-8.3-1.5-13.2-7-15.9-14.6c-1.2-3.3-1.6-6.8-1.6-10.4
		c0-10.6,0.2-21.1-0.1-31.7c-0.1-3.8,2-3.4,4.5-3.5c2.8-0.1,4.4,0.2,4.4,3.8c-0.2,9.9,0,19.9,0.1,29.8c0,2.1,0.3,4.3,0.8,6.4
		c2.9,12.6,12.4,17.9,24.9,14.1C185.5,269.4,186.2,269.2,186.9,269z"/>
	<path class="st1" d="M353.3,273c0,1.2-0.6,1.7-1.8,1.9c-5.4,0.9-6.4,0.2-6.4-5.2c0-4.4-0.1-8.8,0-13.2c0.1-2.3-0.8-3.1-3.1-3
		c-4.2,0.1-8.3,0-13.1,0c3.5-4.1,7.2-5.4,11.9-5.1c4.1,0.3,4.3-0.2,2.8-4c-2.4-6.2-8.3-9.3-15.1-7.8c-1.4,0.3-2.9,0.8-4.3,1.2
		c4.5-5.7,10.5-7.1,17.2-6c5.8,1,10.5,5.6,11.3,11.4C354.1,253.1,353.1,263.1,353.3,273z"/>
	<path class="st1" d="M375.2,271.8c0,3.8-2.3,3-4.5,3.2c-2.7,0.2-3.8-0.5-3.8-3.5c0.2-9.7,0.1-19.4,0.1-29c0-9.8,0.1-19.6-0.1-29.4
		c-0.1-3.3,1.7-3.3,4-3.2c2.2,0.1,4.2-0.3,4.2,3.1C375.1,232.5,375,252.1,375.2,271.8z"/>
	<path class="st1" d="M406.5,272.6c0,3.8-3,1.9-4.8,2.2c-1.8,0.3-3.5,0.2-3.4-2.5c0.1-6.1,0.1-12.3,0-18.5c0-2.2-0.2-4.5-0.6-6.7
		c-1.5-7.5-7.1-11.6-14.8-10.9c-1.7,0.2-3.5,0.6-5.8,1c4.7-5.3,12.4-7.4,18.8-5.1c6.1,2.2,10.1,6.4,10.3,13.1
		C406.5,254.3,406.5,263.4,406.5,272.6z"/>
	<path class="st1" d="M244.9,275c-3,0.1-4.3-0.5-4.2-3.9c0.3-6.9,0.1-13.8,0.1-20.8c0-2.3-0.2-4.5-0.9-6.7
		c-2.1-6.1-6.4-8.6-12.7-7.1c-0.7,0.2-1.4,0.7-2.6,0.1c4.1-4.1,8.8-6.1,14.4-5.1c5.3,1,8.4,4.4,9.6,9.6c1.1,4.7,0.4,9.5,0.5,14.3
		c0.1,5.3-0.2,10.6,0.1,15.9C249.5,274.9,247.7,274.9,244.9,275z"/>
	<path class="st1" d="M275.1,272.7c0,3.9-3.1,1.8-4.8,2.2c-1.9,0.4-3.4,0-3.3-2.6c0.1-6.9,0.1-13.8,0-20.7c0-2.9-0.1-5.8-1.2-8.5
		c-2.2-5.5-6.3-7.7-12.1-6.5c-0.8,0.2-1.5,0.8-2.4,0.5c-0.1,0-0.1,0-0.1-0.1h0c0.1-0.1,0.1-0.2,0.2-0.3c0.4-0.5,0.8-1,1.3-1.5
		c0.2-0.2,0.4-0.4,0.6-0.5c0.2-0.2,0.4-0.3,0.6-0.5c3.3-2.4,7.8-3.4,11.8-2.4c5,1.3,8.9,5.5,9.1,10.8
		C275.3,252.5,275.2,262.6,275.1,272.7z"/>
	<path class="st1" d="M198.9,258.6c0,2.7-4.8,7.6-7.5,7.7c-1.9,0-1.2-1.6-1.2-2.5c-0.1-7.5,0-15.1,0-22.6c0-7.3,0.2-14.6-0.1-21.9
		c-0.2-4.2,2.4-3.4,4.9-3.6c2.8-0.2,4,0.6,3.9,3.7C198.8,232.5,198.9,245.6,198.9,258.6z"/>
	<path class="st1" d="M297.2,235.6c-0.3,6.1-0.1,12.3-0.1,18.5c0,5.9-0.2,11.8,0.1,17.7c0.1,3-1.4,3.4-3.7,3.1
		c-1.9-0.3-4.8,1.3-4.7-2.8c0.1-12.2,0.1-24.4,0-36.6c0-3.6,2.3-2.8,4.3-2.9C295.2,232.5,297.4,232,297.2,235.6z"/>
	<path class="st1" d="M222.1,235.7c-0.2,6-0.1,12-0.1,18.1s-0.2,12.1,0.1,18.1c0.1,3.8-2.4,2.9-4.5,3.1c-2.4,0.2-3.7-0.2-3.7-3.1
		c0.1-12.1,0.2-24.1,0-36.2c-0.1-3.5,1.9-3,4.1-3.1C220.2,232.5,222.2,232.3,222.1,235.7z"/>
	<path class="st1" d="M342.9,269.5c-2.9,4.5-9.3,6.4-14.7,4.9c-5-1.4-8.5-5.4-8.7-9.8c-0.2-4.6,2.8-8.7,8.2-10.6
		c-2.1,5.2-1.7,9.4,2.2,12.9C333.4,270.1,337.9,270.4,342.9,269.5z"/>
	<path class="st1" d="M314.7,237.5c-1.4,0.8-2.7,1.8-4,2.8c-0.8,0.6-1.6,0.8-2.4,0c-2.8-2.9-6.2-3.5-10.2-2.5
		c3.4-6.1,11.7-7.9,16.6-3.9C316.5,235.2,316.9,236.3,314.7,237.5z"/>
</g>
<g>
	<g>
		<path class="st0" d="M465.9,264.7v13.8c0,0.3,0,0.6,0,0.9c-0.1,1-0.5,1.4-1.7,1.4c-1.6,0-3.2,0-4.8,0c-1.1,0-1.5-0.4-1.6-1.3
			c0-0.3,0-0.6,0-0.9v-36.2c0-1.8,0.3-2.1,2.4-2.1c1.2,0,2.5,0,3.7,0c1.6,0,2,0.3,2,1.8C465.9,249.6,465.9,257.1,465.9,264.7z"/>
		<path class="st0" d="M466,226.7c-1.1,0.8-2.2,1.8-3.3,2.7c-0.7,0.6-1.2,0.6-1.9,0.1c-1.2-0.9-2.5-1.8-3.7-2.7
			c-0.7-0.5-0.8-0.9-0.1-1.5c1.3-1,2.5-1.9,3.8-2.9c0.3-0.2,0.7-0.3,1-0.5c0.3,0.1,0.5,0.1,0.6,0.2c1.2,0.8,2.4,1.5,3.6,2.4
			C467.3,225.4,467.2,225.8,466,226.7z"/>
	</g>
	<g id="VD5tNb_00000002381794992865309050000014630085275061946275_">
		<g>
			<path class="st0" d="M445,234.7c-0.2,1-0.5,2.1-0.9,3.1c-0.3,0.7-1,0.8-1.7,0.8c-1.9,0-3.8,0-5.6,0c-0.4,0-0.8,0-1.2,0
				c-1.2,0.1-1.9,0.8-2,2c0,0.5,0,1,0,1.5v35.8c0,2.8-0.1,2.9-2.9,2.9c-1.3,0-2.6,0-3.9,0c-2,0-2.3-0.3-2.3-2.2c0-6.2,0-12.4,0-18.5
				c0-6,0-12.1,0-18.1c0-0.4,0-0.9,0-1.3c-0.1-1.2-0.8-1.9-2-2c-1.1-0.1-2.2-0.1-3.3-0.1c-0.3,0-0.6-0.2-0.7-0.4
				c-0.1-0.2,0.1-0.6,0.3-0.8c1.1-0.9,2.3-1.8,3.5-2.5c1.7-0.9,2.4-2.3,2.4-4.2c-0.1-2.7,0.1-5.4,0-8.1c-0.1-2.2,0.9-3.6,2.6-4.8
				c1.8-1.2,3.5-2.5,5.3-3.7c0.2-0.2,0.7-0.3,0.9-0.2c0.2,0.1,0.3,0.5,0.3,0.8c0,2.1,0,4.2,0,6.3c0,3.3,0,6.6,0,9.9
				c0,2.1,0.7,2.8,2.8,2.8c2.3,0,4.6,0,6.8,0c0.4,0,0.8,0,1.1,0.1C444.8,233.9,445.1,234.2,445,234.7z"/>
			<path class="st0" d="M453.9,211.1c-1.8,1.4-3.7,2.7-5.6,4c-0.6,0.4-1.3,0.3-1.8-0.2c-1.9-2.1-4.4-2.6-6.9-3.3
				c-0.6-0.1-1.2,0-1.8,0.1c-0.6,0.1-1.3,0.1-1.9,0.2c-0.6,0-0.8-0.4-0.5-0.8c0.2-0.4,0.5-0.8,0.8-1.1c0.8-0.8,1.6-1.6,2.6-2.2
				c1-0.6,2.2-1.1,3.3-1.4c1.4-0.4,2.8-0.7,4.1-0.9c3,0.5,5.7,1.2,7.8,3.4C454.9,209.6,455,210.3,453.9,211.1z"/>
		</g>
	</g>
</g>
<path id="XMLID_00000089566066979675770970000007380438098943148693_" class="st0" d="M144.7,251.3
	C144.6,251.2,144.6,251.1,144.7,251.3"/>
<path id="XMLID_00000147196881689718754960000016755555554402974888_" class="st0" d="M145.2,245.2
	C145.1,245.2,145.1,245.2,145.2,245.2C145.1,245.2,145.1,245.2,145.2,245.2L145.2,245.2C145.3,245.4,145.2,245.3,145.2,245.2"/>
<path id="XMLID_00000148654481191342484370000007912561830374639509_" class="st0" d="M144.2,244.4
	C144.1,244.3,144.1,244.2,144.2,244.4"/>
<path id="XMLID_00000136409557051287914310000008136533431515230852_" class="st0" d="M144.8,244.9
	C144.8,244.9,144.8,244.9,144.8,244.9C144.7,244.8,144.5,244.6,144.8,244.9"/>
<path id="XMLID_00000098192913504034271470000013036852371004066725_" class="st0" d="M144.7,251.3
	C144.6,251.2,144.6,251.1,144.7,251.3"/>
<path id="XMLID_00000047018138579446098980000008715498479118005906_" class="st0" d="M145.2,245.2
	C145.1,245.2,145.1,245.2,145.2,245.2C145.1,245.2,145.1,245.2,145.2,245.2L145.2,245.2C145.3,245.4,145.2,245.3,145.2,245.2"/>
<path id="XMLID_00000059272288163158281570000017786823489155277993_" class="st0" d="M144.2,244.4
	C144.1,244.3,144.1,244.2,144.2,244.4"/>
<path id="XMLID_00000100345746644308377240000002608691352286370239_" class="st0" d="M144.8,244.9
	C144.8,244.9,144.8,244.9,144.8,244.9C144.7,244.8,144.5,244.6,144.8,244.9"/>
<path id="XMLID_00000133522920927723191780000007939846170664181668_" class="st0" d="M144.7,251.3
	C144.6,251.2,144.6,251.1,144.7,251.3"/>
<path id="XMLID_00000037668115489262895340000009087730232168981902_" class="st0" d="M145.2,245.2
	C145.1,245.2,145.1,245.2,145.2,245.2C145.1,245.2,145.1,245.2,145.2,245.2L145.2,245.2C145.3,245.4,145.2,245.3,145.2,245.2"/>
<path id="XMLID_00000162353243423600266170000015371382754491193521_" class="st0" d="M144.2,244.4
	C144.1,244.3,144.1,244.2,144.2,244.4"/>
<path id="XMLID_00000023265115719387693350000003526903742539426188_" class="st0" d="M144.8,244.9
	C144.8,244.9,144.8,244.9,144.8,244.9C144.7,244.8,144.5,244.6,144.8,244.9"/>
<path id="XMLID_00000147199895757428641900000005178340775702566569_" class="st0" d="M144.7,251.3
	C144.6,251.2,144.6,251.1,144.7,251.3"/>
<path id="XMLID_00000126303630721466063510000009385498440695778742_" class="st0" d="M145.2,245.2
	C145.1,245.2,145.1,245.2,145.2,245.2C145.1,245.2,145.1,245.2,145.2,245.2L145.2,245.2C145.3,245.4,145.2,245.3,145.2,245.2"/>
<path id="XMLID_00000044872158696518158700000000484509908966925976_" class="st0" d="M144.2,244.4
	C144.1,244.3,144.1,244.2,144.2,244.4"/>
<path id="XMLID_00000153664736996477935860000005358082773262570902_" class="st0" d="M144.8,244.9
	C144.8,244.9,144.8,244.9,144.8,244.9C144.7,244.8,144.5,244.6,144.8,244.9"/>
<path id="XMLID_00000089536126028401162660000001194197518311044249_" class="st0" d="M144.7,251.3
	C144.6,251.2,144.6,251.1,144.7,251.3"/>
<path id="XMLID_00000090283379250551730810000017841363083377196725_" class="st0" d="M145.2,245.2
	C145.1,245.2,145.1,245.2,145.2,245.2C145.1,245.2,145.1,245.2,145.2,245.2L145.2,245.2C145.3,245.4,145.2,245.3,145.2,245.2"/>
<path id="XMLID_00000124857115947828103410000012809377501289902774_" class="st0" d="M144.2,244.4
	C144.1,244.3,144.1,244.2,144.2,244.4"/>
<path id="XMLID_00000044155909035619472630000017443378238483839396_" class="st0" d="M144.8,244.9
	C144.8,244.9,144.8,244.9,144.8,244.9C144.7,244.8,144.5,244.6,144.8,244.9"/>
<path id="XMLID_00000004527574759947454700000013275479291045482888_" class="st0" d="M144.7,251.3
	C144.6,251.2,144.6,251.1,144.7,251.3"/>
<path id="XMLID_00000043419295066507534660000005616213728872821393_" class="st0" d="M145.2,245.2
	C145.1,245.2,145.1,245.2,145.2,245.2C145.1,245.2,145.1,245.2,145.2,245.2L145.2,245.2C145.3,245.4,145.2,245.3,145.2,245.2"/>
<path id="XMLID_00000139289980871511460900000003027328970379400124_" class="st0" d="M144.2,244.4
	C144.1,244.3,144.1,244.2,144.2,244.4"/>
<path id="XMLID_00000122696977826079575480000014355728789559532442_" class="st0" d="M144.8,244.9
	C144.8,244.9,144.8,244.9,144.8,244.9C144.7,244.8,144.5,244.6,144.8,244.9"/>
<g>
	<path class="st0" d="M157.8,307v-8.4c-1.4-2.2-2.7-4.3-3.9-6.4c-1.2-2.1-2.4-4.2-3.5-6.2h3.4c0.8,1.6,1.6,3.3,2.6,5
		c0.9,1.7,1.9,3.3,2.9,4.9c1-1.6,2-3.2,2.9-4.9c0.9-1.7,1.8-3.4,2.6-5h3.3c-1.1,2-2.2,4.1-3.5,6.2s-2.5,4.2-3.9,6.3v8.5L157.8,307
		L157.8,307z"/>
	<path class="st0" d="M183,299.1c0,1.2-0.2,2.4-0.5,3.4s-0.9,1.9-1.5,2.6c-0.7,0.7-1.4,1.3-2.3,1.7c-0.9,0.4-1.9,0.6-3,0.6
		s-2.1-0.2-3-0.6s-1.7-1-2.4-1.7s-1.2-1.6-1.5-2.6c-0.4-1-0.5-2.1-0.5-3.4c0-1.2,0.2-2.4,0.5-3.4c0.4-1,0.9-1.9,1.5-2.6
		c0.7-0.7,1.4-1.3,2.4-1.7c0.9-0.4,1.9-0.6,3-0.6s2.1,0.2,3,0.6c0.9,0.4,1.7,0.9,2.3,1.7c0.7,0.7,1.2,1.6,1.5,2.6
		C182.8,296.8,183,297.9,183,299.1z M180.1,299.1c0-1.8-0.4-3.2-1.2-4.2c-0.8-1-1.9-1.6-3.2-1.6s-2.5,0.5-3.2,1.6
		c-0.8,1-1.2,2.5-1.2,4.2c0,1.8,0.4,3.2,1.2,4.2c0.8,1,1.9,1.6,3.2,1.6s2.5-0.5,3.2-1.6C179.7,302.3,180.1,300.9,180.1,299.1z"/>
	<path class="st0" d="M199.4,306.5c-0.6,0.2-1.5,0.3-2.6,0.5s-2.3,0.3-3.7,0.3c-1.2,0-2.2-0.2-3.1-0.5s-1.5-0.9-2-1.5
		c-0.5-0.6-0.9-1.4-1.1-2.3c-0.2-0.9-0.3-1.9-0.3-2.9v-8.8h2.8v8.2c0,1.9,0.3,3.3,0.9,4.1c0.6,0.8,1.6,1.2,3.1,1.2
		c0.3,0,0.6,0,0.9,0c0.3,0,0.6-0.1,0.9-0.1c0.3,0,0.5-0.1,0.8-0.1c0.2,0,0.4-0.1,0.5-0.1v-13.3h2.8L199.4,306.5L199.4,306.5z"/>
	<path class="st0" d="M210,290.9c0.2,0,0.5,0,0.8,0c0.3,0,0.6,0.1,0.9,0.1c0.3,0.1,0.6,0.1,0.8,0.2s0.4,0.1,0.6,0.1l-0.5,2.4
		c-0.2-0.1-0.6-0.2-1.1-0.3c-0.5-0.1-1.2-0.2-2-0.2c-0.5,0-1,0.1-1.6,0.2c-0.5,0.1-0.9,0.2-1,0.2V307h-2.8v-15.1
		c0.7-0.2,1.5-0.5,2.5-0.7C207.6,291,208.7,290.9,210,290.9z"/>
	<path class="st0" d="M234.3,292.8c-0.9,2.7-1.7,5.2-2.6,7.5c-0.9,2.3-1.7,4.5-2.6,6.7h-2.9c-1.1-3.1-2-6.3-2.8-9.8
		s-1.6-7.2-2.3-11.2h3.1c0.3,1.6,0.6,3.2,0.9,4.7s0.6,3.1,0.9,4.6s0.6,2.9,1,4.2s0.7,2.6,1,3.8c0.8-2.1,1.7-4.4,2.6-7
		s1.8-5.1,2.5-7.9h2.5c0.8,2.7,1.6,5.3,2.6,7.9c0.9,2.5,1.8,4.9,2.6,7c0.3-1.1,0.6-2.4,1-3.7s0.6-2.8,0.9-4.2s0.6-3,0.9-4.6
		s0.6-3.2,0.9-4.7h3c-0.7,4-1.5,7.8-2.3,11.2s-1.8,6.7-2.8,9.8h-2.9c-0.9-2.2-1.8-4.4-2.6-6.7C236,298,235.1,295.5,234.3,292.8z"/>
	<path class="st0" d="M254.9,290.9c1.1,0,2.1,0.1,2.9,0.4c0.8,0.3,1.4,0.7,1.9,1.2c0.5,0.5,0.8,1.2,1,1.9s0.3,1.6,0.3,2.4v9.8
		c-0.2,0-0.6,0.1-1,0.2c-0.4,0.1-0.9,0.1-1.5,0.2s-1.1,0.1-1.8,0.2c-0.6,0.1-1.3,0.1-1.9,0.1c-0.9,0-1.7-0.1-2.4-0.3
		s-1.4-0.5-1.9-0.9c-0.5-0.4-1-0.9-1.3-1.6c-0.3-0.6-0.4-1.4-0.4-2.3c0-0.9,0.2-1.6,0.5-2.2c0.4-0.6,0.8-1.1,1.4-1.5
		c0.6-0.4,1.3-0.7,2.1-0.9s1.6-0.3,2.5-0.3c0.3,0,0.6,0,0.9,0.1s0.6,0.1,0.9,0.1c0.3,0.1,0.5,0.1,0.7,0.1c0.2,0,0.3,0.1,0.4,0.1
		v-0.8c0-0.5,0-0.9-0.1-1.4c-0.1-0.4-0.3-0.9-0.5-1.2c-0.3-0.4-0.6-0.6-1.1-0.9c-0.5-0.2-1-0.3-1.8-0.3c-0.9,0-1.7,0.1-2.4,0.2
		s-1.2,0.3-1.6,0.4l-0.3-2.3c0.4-0.2,1-0.3,1.8-0.5C252.9,291,253.9,290.9,254.9,290.9z M255.1,305c0.7,0,1.3,0,1.8,0
		c0.5,0,0.9-0.1,1.3-0.2v-4.7c-0.2-0.1-0.5-0.2-1-0.3s-1-0.1-1.6-0.1c-0.4,0-0.9,0-1.4,0.1c-0.5,0.1-0.9,0.2-1.3,0.4s-0.7,0.5-1,0.8
		c-0.3,0.3-0.4,0.8-0.4,1.3c0,1,0.3,1.7,1,2.1C253.1,304.8,254,305,255.1,305z"/>
	<path class="st0" d="M263.2,309.9c0.2,0.1,0.5,0.2,0.9,0.3c0.4,0.1,0.7,0.1,1,0.1c1.1,0,2-0.2,2.6-0.7c0.6-0.5,1.2-1.3,1.7-2.4
		c-1.3-2.4-2.5-5-3.5-7.7c-1.1-2.7-2-5.5-2.7-8.2h3c0.2,0.9,0.5,1.9,0.8,2.9s0.7,2.1,1,3.2c0.4,1.1,0.8,2.2,1.2,3.3s0.9,2.2,1.4,3.2
		c0.8-2.1,1.4-4.2,2-6.3c0.6-2.1,1.1-4.2,1.6-6.4h2.9c-0.7,3-1.5,5.8-2.4,8.5c-0.9,2.7-1.9,5.3-2.9,7.7c-0.4,0.9-0.8,1.7-1.3,2.4
		c-0.4,0.7-0.9,1.2-1.4,1.6c-0.5,0.4-1.1,0.7-1.8,0.9c-0.6,0.2-1.4,0.3-2.2,0.3c-0.2,0-0.5,0-0.7,0c-0.2,0-0.5-0.1-0.7-0.1
		c-0.2-0.1-0.4-0.1-0.6-0.2s-0.3-0.1-0.4-0.1L263.2,309.9z"/>
	<path class="st0" d="M289.5,291.3h6v2.4h-6v7.3c0,0.8,0.1,1.4,0.2,1.9c0.1,0.5,0.3,0.9,0.5,1.2c0.2,0.3,0.5,0.5,0.9,0.6
		c0.4,0.1,0.8,0.2,1.3,0.2c0.9,0,1.5-0.1,2-0.3c0.5-0.2,0.9-0.3,1.1-0.4l0.5,2.3c-0.3,0.1-0.8,0.3-1.5,0.5c-0.7,0.2-1.5,0.3-2.4,0.3
		c-1.1,0-2-0.1-2.6-0.4c-0.7-0.3-1.3-0.7-1.7-1.2c-0.4-0.5-0.7-1.2-0.9-2s-0.3-1.7-0.3-2.8v-14l2.8-0.5L289.5,291.3L289.5,291.3z"/>
	<path class="st0" d="M312.4,299.1c0,1.2-0.2,2.4-0.5,3.4s-0.9,1.9-1.5,2.6s-1.4,1.3-2.3,1.7c-0.9,0.4-1.9,0.6-3,0.6s-2.1-0.2-3-0.6
		c-0.9-0.4-1.7-1-2.3-1.7c-0.7-0.7-1.2-1.6-1.5-2.6s-0.5-2.1-0.5-3.4c0-1.2,0.2-2.4,0.5-3.4c0.4-1,0.9-1.9,1.5-2.6
		c0.7-0.7,1.4-1.3,2.3-1.7c0.9-0.4,1.9-0.6,3-0.6s2.1,0.2,3,0.6c0.9,0.4,1.7,0.9,2.3,1.7c0.7,0.7,1.2,1.6,1.5,2.6
		C312.2,296.8,312.4,297.9,312.4,299.1z M309.5,299.1c0-1.8-0.4-3.2-1.2-4.2c-0.8-1-1.9-1.6-3.2-1.6s-2.5,0.5-3.2,1.6
		c-0.8,1-1.2,2.5-1.2,4.2c0,1.8,0.4,3.2,1.2,4.2c0.8,1,1.9,1.6,3.2,1.6s2.5-0.5,3.2-1.6C309.1,302.3,309.5,300.9,309.5,299.1z"/>
	<path class="st0" d="M332.8,304.1c-0.2-0.5-0.5-1.1-0.8-1.8s-0.7-1.6-1.1-2.4s-0.8-1.8-1.2-2.7c-0.4-0.9-0.8-1.8-1.2-2.6
		c-0.4-0.8-0.7-1.5-1.1-2.2c-0.3-0.6-0.6-1.1-0.8-1.5c-0.2,2.4-0.4,5-0.5,7.7c-0.1,2.8-0.3,5.6-0.4,8.4h-2.9
		c0.1-1.8,0.2-3.6,0.3-5.5c0.1-1.8,0.2-3.7,0.4-5.4s0.3-3.5,0.4-5.2s0.3-3.3,0.5-4.8h2.6c0.5,0.9,1.1,1.9,1.8,3.1s1.2,2.5,1.9,3.8
		c0.6,1.3,1.2,2.6,1.8,4s1.1,2.5,1.6,3.6c0.5-1.1,1-2.3,1.6-3.6s1.2-2.6,1.8-4s1.2-2.6,1.9-3.8c0.6-1.2,1.2-2.3,1.8-3.1h2.6
		c0.7,6.8,1.2,13.8,1.5,21h-2.9c-0.1-2.8-0.2-5.6-0.4-8.4c-0.1-2.8-0.3-5.4-0.5-7.7c-0.2,0.3-0.5,0.8-0.8,1.5
		c-0.3,0.6-0.7,1.4-1.1,2.2s-0.8,1.7-1.2,2.6c-0.4,0.9-0.8,1.8-1.2,2.7c-0.4,0.9-0.7,1.7-1.1,2.4c-0.3,0.8-0.6,1.4-0.8,1.8H332.8z"
		/>
	<path class="st0" d="M348.6,299.2c0-1.4,0.2-2.6,0.6-3.6c0.4-1,0.9-1.9,1.6-2.6c0.7-0.7,1.4-1.2,2.3-1.5s1.8-0.5,2.7-0.5
		c2.1,0,3.7,0.7,4.9,2c1.1,1.3,1.7,3.3,1.7,6c0,0.1,0,0.3,0,0.5s0,0.4,0,0.5h-10.8c0.1,1.6,0.6,2.9,1.4,3.7c0.8,0.9,2.1,1.3,3.9,1.3
		c1,0,1.8-0.1,2.5-0.3c0.7-0.2,1.2-0.3,1.5-0.5l0.4,2.4c-0.3,0.2-0.9,0.4-1.8,0.6c-0.9,0.2-1.8,0.3-2.9,0.3c-1.4,0-2.6-0.2-3.6-0.6
		c-1-0.4-1.8-1-2.5-1.7s-1.1-1.6-1.4-2.6S348.6,300.4,348.6,299.2z M359.4,297.6c0-1.3-0.3-2.3-1-3.1c-0.7-0.8-1.6-1.2-2.7-1.2
		c-0.6,0-1.2,0.1-1.7,0.4s-0.9,0.6-1.3,1c-0.3,0.4-0.6,0.9-0.8,1.4s-0.3,1.1-0.4,1.6L359.4,297.6L359.4,297.6z"/>
	<path class="st0" d="M373.1,307.4c-1.3,0-2.4-0.2-3.3-0.6c-0.9-0.4-1.8-1-2.4-1.7c-0.7-0.7-1.1-1.6-1.5-2.6s-0.5-2.1-0.5-3.3
		c0-1.2,0.2-2.3,0.5-3.3s0.9-1.9,1.5-2.6c0.6-0.7,1.4-1.3,2.4-1.7s2-0.6,3.1-0.6c0.7,0,1.4,0.1,2.1,0.2s1.4,0.3,2,0.6l-0.6,2.4
		c-0.4-0.2-0.9-0.4-1.5-0.5s-1.1-0.2-1.8-0.2c-1.6,0-2.8,0.5-3.6,1.5s-1.2,2.4-1.2,4.3c0,0.9,0.1,1.6,0.3,2.3
		c0.2,0.7,0.5,1.3,0.9,1.8c0.4,0.5,0.9,0.9,1.6,1.2c0.6,0.3,1.4,0.4,2.4,0.4c0.8,0,1.4-0.1,2-0.2c0.6-0.1,1.1-0.3,1.4-0.4l0.4,2.4
		c-0.2,0.1-0.4,0.2-0.7,0.3s-0.6,0.2-1,0.2s-0.8,0.1-1.2,0.2C373.9,307.3,373.5,307.4,373.1,307.4z"/>
	<path class="st0" d="M387.1,307.4c-1.3,0-2.4-0.2-3.3-0.6c-0.9-0.4-1.8-1-2.4-1.7c-0.7-0.7-1.1-1.6-1.5-2.6s-0.5-2.1-0.5-3.3
		c0-1.2,0.2-2.3,0.5-3.3s0.9-1.9,1.5-2.6c0.6-0.7,1.4-1.3,2.4-1.7s2-0.6,3.1-0.6c0.7,0,1.4,0.1,2.1,0.2s1.4,0.3,2,0.6l-0.6,2.4
		c-0.4-0.2-0.9-0.4-1.5-0.5s-1.1-0.2-1.8-0.2c-1.6,0-2.8,0.5-3.6,1.5s-1.2,2.4-1.2,4.3c0,0.9,0.1,1.6,0.3,2.3
		c0.2,0.7,0.5,1.3,0.9,1.8c0.4,0.5,0.9,0.9,1.6,1.2c0.6,0.3,1.4,0.4,2.4,0.4c0.8,0,1.4-0.1,2-0.2c0.6-0.1,1.1-0.3,1.4-0.4l0.4,2.4
		c-0.2,0.1-0.4,0.2-0.7,0.3s-0.6,0.2-1,0.2s-0.8,0.1-1.2,0.2C387.9,307.3,387.5,307.4,387.1,307.4z"/>
	<path class="st0" d="M399.3,290.9c1.1,0,2.1,0.1,2.9,0.4c0.8,0.3,1.4,0.7,1.9,1.2c0.5,0.5,0.8,1.2,1,1.9s0.3,1.6,0.3,2.4v9.8
		c-0.2,0-0.6,0.1-1,0.2c-0.4,0.1-0.9,0.1-1.5,0.2s-1.1,0.1-1.8,0.2c-0.6,0.1-1.3,0.1-1.9,0.1c-0.9,0-1.7-0.1-2.5-0.3
		s-1.4-0.5-1.9-0.9c-0.5-0.4-1-0.9-1.3-1.6c-0.3-0.6-0.5-1.4-0.5-2.3c0-0.9,0.2-1.6,0.5-2.2c0.4-0.6,0.8-1.1,1.4-1.5
		c0.6-0.4,1.3-0.7,2.1-0.9s1.6-0.3,2.5-0.3c0.3,0,0.6,0,0.9,0.1c0.3,0,0.6,0.1,0.9,0.1c0.3,0.1,0.5,0.1,0.7,0.1
		c0.2,0,0.3,0.1,0.4,0.1v-0.8c0-0.5,0-0.9-0.1-1.4c-0.1-0.4-0.3-0.9-0.5-1.2c-0.3-0.4-0.6-0.6-1.1-0.9c-0.5-0.2-1-0.3-1.8-0.3
		c-0.9,0-1.7,0.1-2.4,0.2s-1.2,0.3-1.6,0.4l-0.3-2.3c0.4-0.2,1-0.3,1.8-0.5C397.4,291,398.3,290.9,399.3,290.9z M399.5,305
		c0.7,0,1.3,0,1.8,0c0.5,0,0.9-0.1,1.3-0.2v-4.7c-0.2-0.1-0.5-0.2-1-0.3s-1-0.1-1.6-0.1c-0.4,0-0.9,0-1.4,0.1
		c-0.5,0.1-0.9,0.2-1.3,0.4c-0.4,0.2-0.7,0.5-1,0.8c-0.3,0.3-0.4,0.8-0.4,1.3c0,1,0.3,1.7,1,2.1C397.6,304.8,398.5,305,399.5,305z"
		/>
</g>
</svg>
